<svg width="609" height="79" viewBox="0 0 609 79" fill="none" xmlns="http://www.w3.org/2000/svg">
<path d="M319.017 53.2139H345.819V0H359.178V53.2139H366.82V78.3311H353.446V64.958H305.714V0H319.017V53.2139ZM13.3096 26.9736H40.125V0H53.4941V64.958H40.125V38.8096H13.1826L13.3096 64.958H0V0H13.3096V26.9736ZM81.8975 41.9287L111.534 0H122.273V64.958H108.964V23.3955L79.3271 64.958H68.5879V0H81.8975V41.9287ZM162.524 0C166.44 2.8971e-05 169.99 0.42794 173.172 1.28418C176.354 2.0793 179.046 3.39469 181.249 5.22949C183.513 7.00323 185.227 9.35814 186.39 12.2939C187.613 15.1687 188.194 18.7171 188.133 22.9375C188.072 26.6071 187.43 29.8793 186.206 32.7539C184.982 35.5675 183.268 37.9529 181.065 39.9102C178.924 41.8062 176.323 43.2747 173.264 44.3145C170.265 45.293 166.991 45.7822 163.442 45.7822H150.867V64.958H137.558V0H162.524ZM420.888 11.8359H387.77V26.9736H416.668V38.8096H387.77V53.2139H420.888V64.958H374.468V0H420.888V11.8359ZM446.997 26.9736H473.812V0H487.183V64.958H473.812V38.8096H446.871L446.997 64.958H433.688V0H446.997V26.9736ZM548.319 11.8359H529.214V64.958H515.841V11.8359H496.735V0H548.319V11.8359ZM582.825 0C586.739 1.85201e-05 590.287 0.427941 593.467 1.28418C596.647 2.0793 599.338 3.39462 601.54 5.22949C603.803 7.00321 605.516 9.35819 606.678 12.2939C607.901 15.1687 608.481 18.7171 608.42 22.9375C608.359 26.6071 607.717 29.8793 606.494 32.7539C605.271 35.5674 603.558 37.9529 601.356 39.9102C599.216 41.8062 596.617 43.2747 593.559 44.3145C590.562 45.2931 587.289 45.7822 583.742 45.7822H571.174V64.958H557.872V0H582.825ZM278.936 19.1104C285.266 19.1105 290.398 24.2426 290.398 30.5732C290.398 36.9041 285.266 42.036 278.936 42.0361C273.944 42.0359 269.699 38.8447 268.126 34.3916H224.787C223.214 38.8449 218.969 42.0361 213.978 42.0361C207.647 42.0357 202.515 36.9039 202.515 30.5732C202.515 24.2428 207.647 19.1108 213.978 19.1104C218.967 19.1104 223.21 22.2997 224.785 26.75H268.128C269.702 22.2996 273.946 19.1106 278.936 19.1104ZM571.174 34.0391H583.009C584.66 34.039 586.22 33.8246 587.688 33.3965C589.155 32.9683 590.439 32.2953 591.54 31.3779C592.641 30.4605 593.527 29.3289 594.2 27.9834C594.873 26.6378 595.241 25.0469 595.302 23.2119C595.424 19.053 594.323 16.1168 591.999 14.4043C589.675 12.6918 586.647 11.836 582.917 11.8359H571.174V34.0391ZM150.867 34.0381H162.708C164.36 34.0381 165.92 33.8245 167.389 33.3965C168.857 32.9683 170.143 32.2954 171.244 31.3779C172.346 30.4605 173.233 29.329 173.906 27.9834C174.579 26.6378 174.947 25.0469 175.008 23.2119C175.13 19.053 174.028 16.1169 171.703 14.4043C169.378 12.6918 166.349 11.836 162.616 11.8359H150.867V34.0381Z" fill="#453C69"/>
</svg>
