<svg width="110" height="58" viewBox="0 0 110 58" fill="none" xmlns="http://www.w3.org/2000/svg">
<path d="M4.83984 48.4443H14.5684V29.1289H19.417V48.4443H22.1914V57.5615H17.3369V52.707H0.0107422V29.1289H4.83984V48.4443ZM41.8174 33.4248H29.7959V38.9199H40.2852V43.2158H29.7959V48.4443H41.8174V52.707H24.9668V29.1289H41.8174V33.4248ZM51.2939 38.9199H61.0273V29.1289H65.8809V52.707H61.0273V43.2158H51.248L51.2939 52.707H46.4629V29.1289H51.2939V38.9199ZM88.0723 33.4248H81.1377V52.707H76.2832V33.4248H69.3477V29.1289H88.0723V33.4248ZM100.597 29.1289C102.017 29.1289 103.306 29.2839 104.46 29.5947C105.614 29.8834 106.591 30.3603 107.391 31.0264C108.212 31.6702 108.833 32.5253 109.255 33.5908C109.699 34.6343 109.91 35.9222 109.888 37.4541C109.865 38.7862 109.632 39.9741 109.188 41.0176C108.744 42.0389 108.122 42.9048 107.323 43.6152C106.546 44.3034 105.603 44.8365 104.493 45.2139C103.405 45.5691 102.217 45.7461 100.93 45.7461H96.3682V52.707H91.5391V29.1289H100.597ZM96.3682 41.4834H100.664C101.263 41.4834 101.83 41.4064 102.362 41.251C102.895 41.0956 103.361 40.8506 103.761 40.5176C104.16 40.1846 104.482 39.7744 104.727 39.2861C104.971 38.7977 105.104 38.2198 105.126 37.5537C105.17 36.0442 104.77 34.979 103.927 34.3574C103.083 33.7358 101.984 33.4248 100.63 33.4248H96.3682V41.4834ZM4.83105 9.79102H14.5645V0H19.417V23.5781H14.5645V14.0869H4.78516L4.83105 23.5781H0V0H4.83105V9.79102ZM29.7266 15.2197L40.4844 0H44.3828V23.5781H39.5518V8.49219L28.7939 23.5781H24.8955V0H29.7266V15.2197ZM58.9932 0C60.4147 6.84031e-06 61.7034 0.155001 62.8584 0.46582C64.0133 0.754452 64.9905 1.23245 65.79 1.89844C66.6118 2.54227 67.2333 3.39728 67.6553 4.46289C68.0995 5.50635 68.3113 6.79431 68.2891 8.32617C68.2668 9.65797 68.033 10.8454 67.5889 11.8887C67.1447 12.9098 66.5231 13.7759 65.7236 14.4863C64.9463 15.1745 64.002 15.7075 62.8916 16.085C61.8032 16.4402 60.6145 16.6182 59.3262 16.6182H54.7617V23.5781H49.9307V0H58.9932ZM101.248 6.9375C103.546 6.9375 105.409 8.80069 105.409 11.0986C105.409 13.3966 103.546 15.2598 101.248 15.2598C99.4368 15.2597 97.8966 14.1019 97.3252 12.4863H81.5928C81.0213 14.1019 79.4812 15.2598 77.6699 15.2598C75.3719 15.2598 73.5088 13.3966 73.5088 11.0986C73.5089 8.8007 75.372 6.93751 77.6699 6.9375C79.4815 6.9375 81.0215 8.09599 81.5928 9.71191H97.3252C97.8965 8.09601 99.4365 6.93756 101.248 6.9375ZM54.7617 12.3555H59.0596C59.6593 12.3555 60.2257 12.2775 60.7588 12.1221C61.2918 11.9667 61.7584 11.7226 62.1582 11.3896C62.558 11.0566 62.8797 10.6456 63.124 10.1572C63.3683 9.66883 63.5022 9.09176 63.5244 8.42578C63.5688 6.91619 63.1691 5.85019 62.3252 5.22852C61.4811 4.60686 60.3813 4.2959 59.0264 4.2959H54.7617V12.3555Z" fill="white"/>
</svg>
